<svg id="Filled" height="512" viewBox="0 0 512 512" width="512" xmlns="http://www.w3.org/2000/svg"><path d="m167.44 355.41-71.99 85.81a.01.01 0 0 1 -.01-.01 200.077 200.077 0 0 1 -44.67-253.22l97.01 56a88.028 88.028 0 0 0 19.66 111.42z" fill="#8e9c4c"/><path d="m193.89 205.29a88.161 88.161 0 0 0 -56.57 98l-110.31 19.45a200.092 200.092 0 0 1 128.57-222.73z" fill="#8e9c4c"/><path d="m224 376v112h-.56c-.58 0-1.16 0-1.73-.01a199.169 199.169 0 0 1 -126.26-46.77.01.01 0 0 1 -.01-.01c-.11-.09-.22-.19-.33-.28a199.726 199.726 0 0 1 -68.1-118.19l110.31-19.45a88.065 88.065 0 0 0 86.68 72.71z" fill="#fcb442"/><path d="m352 441.21a199.149 199.149 0 0 1 -126.27 46.78c-.57.01-1.15.01-1.73.01h-.56c-.58 0-1.16 0-1.73-.01a199.114 199.114 0 0 1 -126.82-46.77.01.01 0 0 1 -.01-.01l.23-.28 72.18-85.65a87.964 87.964 0 0 0 113.12.25z" fill="#fc8d36"/><path d="m420.99 322.73v.01a200.051 200.051 0 0 1 -195.26 165.25c-.57.01-1.15.01-1.73.01v-112a87.584 87.584 0 0 0 56.41-20.47l.15-.12a87.922 87.922 0 0 0 30.12-52.12z" fill="#e74444"/><path d="m424 288a200.717 200.717 0 0 1 -3.01 34.73v.01a199.782 199.782 0 0 1 -68.43 118.47l-72-85.8a88.014 88.014 0 0 0 19.66-111.41v-.01l97.01-56a199 199 0 0 1 26.77 100.01z" fill="#b01641"/><path d="m424 288a200.717 200.717 0 0 1 -3.01 34.73v.01l-110.31-19.45a88.629 88.629 0 0 0 1.32-15.29 87.561 87.561 0 0 0 -11.78-44v-.01a88.328 88.328 0 0 0 -46.12-38.71l38.32-105.27a200.01 200.01 0 0 1 131.58 187.99z" fill="#b75382"/><path d="m300.22 244v-.01a87.848 87.848 0 0 0 -76.22-43.99v-112a199.9 199.9 0 0 1 68.42 12v.01a200.6 200.6 0 0 1 104.81 87.98z" fill="#80588f"/><path d="m224 88v112a87.892 87.892 0 0 0 -76.22 43.99l-97.01-56a199.685 199.685 0 0 1 173.23-99.99z" fill="#298057"/><path d="m292.42 100v.01l-38.32 105.27a88.386 88.386 0 0 0 -60.21.01l-38.31-105.28a200.975 200.975 0 0 1 136.84-.01z" fill="#2b70a8"/><path d="m477.547 89.815-59.128-24.49-40.519 97.814-14.594 35.219a24.087 24.087 0 0 0 .549 19.592l-5.4 13.038a24 24 0 1 0 44.345 18.374l5.407-13.049a24.023 24.023 0 0 0 14.231-13.458zm-69.893 126.925a8 8 0 0 1 -6.339 4.859 8 8 0 0 0 -6.346 4.869l-6.95 16.77a8 8 0 1 1 -14.777-6.128l6.94-16.759a8.006 8.006 0 0 0 -1.044-7.93 8.033 8.033 0 0 1 -1.048-7.937l29.567 12.248z" fill="#a4d4f4"/><path d="m458.27 23.617a24 24 0 0 1 24 24v34.238a0 0 0 0 1 0 0h-48a0 0 0 0 1 0 0v-34.238a24 24 0 0 1 24-24z" fill="#757c80" transform="matrix(.924 .383 -.383 .924 55.065 -171.358)"/><path d="m404.922 68.961h80v32h-80z" fill="#2b70a8" transform="matrix(.924 .383 -.383 .924 66.381 -163.797)"/><path d="m224 176a112 112 0 1 0 112 112 112 112 0 0 0 -112-112zm0 176a64 64 0 1 1 64-64 64 64 0 0 1 -64 64z" fill="#fae8d8"/><path d="m380.6 264.178a23.988 23.988 0 0 0 2.776-.178h-5.621a23.684 23.684 0 0 0 2.845.178z" fill="#b75382"/><path d="m407.654 216.74 24.493-59.14-29.558-12.24-24.5 59.121a8.029 8.029 0 0 0 1.047 7.939 8.006 8.006 0 0 1 1.044 7.93l-6.94 16.759a8 8 0 1 0 14.777 6.128l6.95-16.77a8 8 0 0 1 6.346-4.869 8 8 0 0 0 6.341-4.858z" fill="#b75382"/><path d="m224 216a72 72 0 1 0 72 72 72.081 72.081 0 0 0 -72-72zm0 128a56 56 0 1 1 56-56 56.063 56.063 0 0 1 -56 56z"/><path d="m491.062 78.1-7.389-3.061 6.12-14.788a32 32 0 0 0 -59.123-24.49l-6.129 14.785-7.39-3.061a8 8 0 0 0 -10.453 4.33l-12.245 29.56a8 8 0 0 0 4.329 10.452l7.4 3.063-15.308 36.959-8.729 21.067a209.939 209.939 0 0 0 -63.37-50.121 205.767 205.767 0 0 0 -94.775-22.795c-114.691 0-208 93.309-208 208s93.309 208 208 208 208-93.309 208-208a207.653 207.653 0 0 0 -10.052-64.038c.172-.365.338-.735.493-1.11l27.55-66.521 15.309-36.951 7.392 3.061a7.991 7.991 0 0 0 10.453-4.329l12.246-29.564a8 8 0 0 0 -4.329-10.448zm-45.611-36.218a16 16 0 1 1 29.557 12.249l-6.118 14.781-29.567-12.247zm-70.251 127.787-11.873 28.654-39.667 22.9a120.764 120.764 0 0 0 -51.2-42.993l24.682-67.808q7.256 3 14.326 6.61a193.824 193.824 0 0 1 63.732 52.637zm-11.342 48.281-5.4 13.038a24 24 0 1 0 44.342 18.374l5.407-13.049c.229-.08.453-.171.678-.258a192.984 192.984 0 0 1 5.426 77.384l-71.011-12.525a120.564 120.564 0 0 0 .7-12.914 119.265 119.265 0 0 0 -12.325-52.93l31.664-18.281q.243.587.519 1.161zm-147.858 189.777v72.094a190.982 190.982 0 0 1 -109.124-39.794l46.325-55.2a119.319 119.319 0 0 0 62.799 22.9zm16 0a119.319 119.319 0 0 0 62.8-22.9l46.325 55.2a190.982 190.982 0 0 1 -109.125 39.794zm-8-15.727a104 104 0 1 1 104-104 104.118 104.118 0 0 1 -104 104zm58.112-287.062-24.681 67.806a120.166 120.166 0 0 0 -66.862 0l-24.662-67.752a192.765 192.765 0 0 1 116.205-.054zm-131.234 5.543 24.661 67.751a120.764 120.764 0 0 0 -51.2 42.993l-62.423-36.038a193.165 193.165 0 0 1 88.962-74.706zm-96.978 88.553 62.426 36.037a119.261 119.261 0 0 0 -12.326 52.929 120.564 120.564 0 0 0 .7 12.914l-71.012 12.525a192.912 192.912 0 0 1 -1.688-25.439 190.8 190.8 0 0 1 21.9-88.966zm-17.436 130.166 71.006-12.53a120.037 120.037 0 0 0 33.48 57.864l-46.327 55.2a192.065 192.065 0 0 1 -58.159-100.534zm316.913 100.539-46.327-55.2a120.037 120.037 0 0 0 33.48-57.864l71.006 12.525a192.065 192.065 0 0 1 -58.159 100.539zm54.277-213a8 8 0 0 1 -6.339 4.859 8 8 0 0 0 -6.346 4.869l-6.95 16.77a8 8 0 1 1 -14.777-6.128l6.94-16.759a8.006 8.006 0 0 0 -1.044-7.93 8.029 8.029 0 0 1 -1.047-7.939l24.5-59.121 29.556 12.24zm30.617-73.922-29.559-12.239 12.247-29.566 29.559 12.244zm33.153-38.217-59.124-24.494 6.123-14.782 59.128 24.492z"/></svg>